# xmcd CD database file
#
# Track frame offsets:
#	150
#	28278
#	54749
#	76187
#	113091
#	135063
#	155586
#	175179
#	221340
#	238220
#	256762
#	276960
#	309291
#
# Disc length: 4423 seconds
#
# Revision: 0
# Processed by: cddbd v1.5.2PL0 Copyright (c) Steve Scherf et al.
# Submitted via: CDex 1.99.1
#
DISCID=a811450d
DTITLE=Jesse Tree Project - Activate
DYEAR=2016
DGENRE=New Age
TTITLE0=Messenger
TTITLE1=Grandmother Part 1
TTITLE2=Ichigo Ichie
TTITLE3=Earth and Sky
TTITLE4=Grandmother Part 2
TTITLE5=Activate
TTITLE6=Plantando
TTITLE7=Dreamtime Traveling
TTITLE8=Feather Feet
TTITLE9=Humming Bird
TTITLE10=Deep Space
TTITLE11=Pots and Pans
TTITLE12=The Valley
EXTD=YEAR: 2016
EXTT0=
EXTT1=
EXTT2=
EXTT3=
EXTT4=
EXTT5=
EXTT6=
EXTT7=
EXTT8=
EXTT9=
EXTT10=
EXTT11=
EXTT12=
PLAYORDER=
